<svg xmlns="http://www.w3.org/2000/svg" xmlns:vectornator="http://vectornator.io" stroke-miterlimit="10" style="fill-rule:nonzero;clip-rule:evenodd;stroke-linecap:round;stroke-linejoin:round" xml:space="preserve" viewBox="627.14 113.93 1014.03 1524.74"><g vectornator:layerName="レイヤー 1"><path d="M676.127 535.649s32.164 44.179 73.363 76.884c46.362 36.803 99.307 57.129 135.595 64.041 16.382 3.121-12.537 27.495-27.89 48.79-12.41 17.213-28.319 39.14-40.143 53.26-34.748 41.497-42.684 81.438-42.684 81.438l19.656-142.544-117.897-181.869ZM756.306 1554.88l20.549-73.42 49.859-44.77 78.487 108.23-148.895 9.96ZM723.75 1066.31l-38.893-34.43-11.646-82.202 63.174-10.691-12.635 127.323ZM1147.18 1566.94l76.99-69.89 7.9 3.25-2.54 6.31-23.7 24.34 9.87 13.33 27.51 18.48-38.61 2.81" fill="#f2f2f2" fill-rule="evenodd"/><path d="M1188 718.667S1422.67 796 1381.33 1052m-294.66-84s30.66-52 54.66-38.667m-116 175.997s30.67 78.67 100 78.67m257.34-129.33s74.66 182.66-44 304m24-21.34S1597.33 1412 1477.33 1572m-10.66-1.33-178.67 4h-150.67M997.333 1488s-30.666-121.33 11.997-204M810.753 716.218S583.806 587.624 664.486 344.263C733.654 135.624 898.465 126.9 999.897 136.332c16.883 1.57 32.003 3.642 44.643 5.38 18.9 2.598 72.8 18.613 107.39 48.713 73.46 63.916 99.6 85.192 102.28 235.602m-4.88-76.694S1484 334.667 1548 630.667m-310.67-68S1480 645.333 1544 633.333m-310.67-72s8.02 30.313-42.65 151.647m-20.01 808.35-28 29.34-41.34 50.66-150.663 17.34-45.334-17.34s-10.666-116 72-138.66m-60 60s-300-197.34-110.666-806.67m310.663 282.667s-40-64-143.997-50.667c-104 13.333-86.666 41.333-82.666 42.667M920 977.333S828 1028 854.667 1084c26.666 56 178.663 20 178.663 20M824 1426.67s-84 25.33-69.333 134.66M748 1560l152 2.67m-154.667-488S698.667 1092 672 1013.33c-14.289-42.149 3.552-62.336 8-67.997 14.667-18.666 35.065-2.952 40-12m-26.667 1.334s12-58.667 52-21.334" fill="none" stroke="#060607" stroke-width="40"/><path d="M996.548 944.819c9.902-34.342 28.512-59.836 54.202-84.992 15.52-15.206 33.16-34.315 50.5-47.423 27.27-20.621 56.41-33.171 89.3-42.495 34.6-9.809 85.02-20.114 114.96 7.565 12.29 11.353 14.15 15.114 21.77 30.003-5.8 3.753-10.75-.457-12.94-1.231-28.76-10.181-63.77-13.999-94.23-12.318-78.42 4.327-152.15 83.752-178.6 152.123-14.97-2.628-30.54-3.442-45.578-1.232-.017-7.079 2.897-14.041 6.158-20.324M944 348.34c0-39.216 30.522-71.007 68.17-71.007 37.65 0 68.17 31.791 68.17 71.007 0 39.216-30.52 71.006-68.17 71.006-37.648 0-68.17-31.79-68.17-71.006Z" fill="#060607" fill-rule="evenodd" stroke="#060607" stroke-width="10.007"/><path d="M1006.67 324.443c0-17.918 13.94-32.443 31.14-32.443 17.21 0 31.15 14.525 31.15 32.443 0 17.917-13.94 32.442-31.15 32.442-17.2 0-31.14-14.525-31.14-32.442Z" fill="#fff" fill-rule="evenodd"/><path d="M1260.14 744.966s187.89 107.913 138.39 303.234c-8.44 33.34 20.2 53.8 21.37 71.42 3.92 58.83 22.95 24.43-5.46 132.74-4.45 16.96 21.92-.14 34.41-1.23 24.34-2.13 50.38-5.24 74.31-10.11 65.75-13.38 98.16-18.07 98.16-18.07s51.82-407.151-38.17-434.146c-46.14-13.844-27.69-20.765-106.13-50.759-78.45-29.994-78.45-13.844-78.45-13.844l-33.73-9.197-123.22 10.058 18.52 19.904Z" fill="#060607" fill-rule="evenodd" stroke="#060607" stroke-width="10.007"/><path d="M1015.39 1131.9s53.13 144.65 118.07 137.27c64.95-7.38 29.52 50.18 137.27-36.9 25.79-20.84 119.56-138.74 119.56-138.74s-23.68 10.87-19.19-1.48l-109.22 125.46-70.85 48.71-92.99-23.62-30.63-41.68-25.46-55.73-26.56-13.29Z" fill="#060607" fill-rule="evenodd" stroke="#060607" stroke-width="10.007"/></g></svg>