<?xml version="1.0" standalone="no"?>
<!DOCTYPE svg PUBLIC "-//W3C//DTD SVG 20010904//EN"
 "http://www.w3.org/TR/2001/REC-SVG-20010904/DTD/svg10.dtd">
<svg version="1.0" xmlns="http://www.w3.org/2000/svg"
 width="1525.000000pt" height="1525.000000pt" viewBox="0 0 1525.000000 1525.000000"
 preserveAspectRatio="xMidYMid meet">
<metadata>
Created by potrace 1.14, written by Peter Selinger 2001-2017
</metadata>
<g transform="translate(0.000000,1525.000000) scale(0.100000,-0.100000)"
fill="#000000" stroke="none">
<path d="M5538 15245 c-1 -2 -47 -6 -100 -10 -54 -3 -105 -7 -115 -9 -10 -2
-45 -7 -78 -11 -32 -4 -66 -8 -75 -10 -43 -8 -106 -19 -115 -20 -21 -2 -93
-18 -150 -32 -33 -8 -69 -17 -79 -19 -11 -2 -65 -18 -120 -35 -56 -17 -105
-32 -111 -32 -5 -1 -12 -5 -15 -8 -3 -3 -34 -16 -70 -28 -111 -40 -230 -95
-370 -174 -103 -58 -124 -70 -130 -78 -3 -3 -18 -14 -35 -23 -34 -19 -90 -58
-121 -85 -12 -10 -28 -22 -36 -27 -30 -18 -141 -114 -233 -203 -91 -89 -144
-147 -224 -246 -40 -49 -79 -98 -87 -108 -8 -9 -14 -22 -14 -27 0 -6 -4 -10
-8 -10 -5 0 -15 -12 -23 -27 -8 -16 -19 -33 -25 -40 -6 -6 -26 -35 -44 -65
-18 -29 -40 -64 -50 -78 -9 -14 -27 -45 -41 -70 -13 -25 -28 -48 -34 -52 -5
-4 -6 -8 -2 -8 5 0 0 -12 -11 -27 -23 -34 -167 -333 -170 -356 -1 -4 -9 -24
-18 -45 -8 -20 -27 -68 -41 -107 -14 -38 -29 -79 -33 -90 -4 -11 -8 -23 -9
-27 -1 -4 -8 -23 -17 -43 -8 -19 -14 -38 -14 -42 0 -8 -26 -100 -41 -143 -25
-72 -81 -336 -94 -439 -4 -30 -8 -62 -10 -73 -13 -64 -20 -212 -19 -403 0
-211 4 -272 25 -415 16 -113 20 -133 40 -222 11 -48 17 -93 13 -100 -4 -7 -3
-9 1 -5 8 6 30 -54 49 -134 5 -21 34 -109 43 -129 3 -8 7 -20 9 -27 1 -7 9
-27 18 -44 9 -18 16 -36 16 -40 0 -5 13 -36 29 -69 16 -33 27 -60 25 -60 -2 0
14 -34 37 -75 22 -41 37 -75 32 -75 -4 0 -3 -4 3 -8 6 -4 19 -23 29 -42 9 -19
51 -89 92 -155 41 -66 80 -129 86 -140 7 -10 17 -24 22 -31 36 -42 44 -54 37
-54 -4 0 -2 -4 4 -8 5 -4 23 -25 40 -47 40 -54 41 -56 67 -86 12 -14 38 -45
57 -68 118 -143 284 -311 461 -466 60 -53 231 -186 303 -237 l24 -18 -18 -50
c-10 -28 -19 -54 -20 -58 0 -4 -6 -25 -12 -47 -13 -44 -14 -51 -22 -80 -20
-74 -26 -95 -39 -137 -8 -27 -13 -48 -10 -48 3 0 0 -6 -6 -14 -6 -8 -11 -18
-10 -22 1 -5 0 -11 -1 -14 -1 -3 -3 -12 -5 -20 -1 -8 -8 -35 -16 -60 -7 -25
-13 -49 -15 -55 -1 -5 -7 -30 -15 -55 -7 -25 -13 -49 -14 -55 -1 -5 -3 -12 -4
-15 -1 -3 -4 -14 -6 -25 -2 -11 -16 -67 -30 -125 -14 -58 -28 -114 -30 -125
-2 -11 -6 -27 -8 -35 -2 -8 -10 -43 -17 -78 -7 -34 -16 -65 -21 -68 -4 -2 -6
-11 -3 -18 3 -8 0 -34 -6 -57 -7 -24 -15 -57 -17 -74 -6 -35 -11 -58 -13 -65
-1 -3 -3 -9 -5 -15 -1 -5 -3 -12 -4 -15 -2 -3 -4 -16 -5 -30 -6 -49 -28 -156
-35 -168 -5 -9 -17 -7 -48 8 -22 10 -53 22 -69 26 -53 12 -169 11 -206 -2 -20
-7 -39 -10 -42 -7 -3 4 -6 1 -6 -6 0 -7 -4 -9 -10 -6 -5 3 -10 3 -10 -2 0 -4
-13 -14 -28 -21 -63 -27 -190 -176 -207 -242 0 -3 -9 -19 -18 -37 -9 -18 -17
-39 -17 -46 0 -8 -12 -25 -26 -38 -62 -57 -100 -96 -119 -123 -11 -15 -25 -33
-30 -40 -43 -49 -111 -229 -122 -323 -10 -90 -5 -313 8 -313 4 0 9 -17 13 -37
6 -39 48 -176 69 -228 38 -93 121 -249 163 -310 52 -74 185 -215 203 -215 6 0
11 -4 11 -8 0 -15 173 -99 230 -113 30 -7 58 -15 62 -18 4 -3 9 -94 13 -201 3
-107 8 -220 10 -250 2 -30 7 -91 10 -136 3 -45 7 -96 10 -115 2 -19 6 -63 10
-99 3 -36 8 -72 10 -80 2 -8 7 -49 10 -90 4 -41 8 -77 10 -80 2 -3 6 -29 10
-59 4 -30 9 -63 11 -75 2 -12 7 -41 10 -66 3 -25 8 -53 10 -62 3 -10 7 -30 10
-45 2 -16 7 -39 9 -53 3 -14 7 -36 10 -50 3 -14 14 -68 26 -120 12 -52 23
-102 24 -110 1 -8 4 -22 7 -30 6 -14 35 -132 43 -173 2 -10 9 -32 14 -50 6
-18 34 -106 61 -197 28 -91 60 -187 70 -215 25 -64 37 -99 38 -105 1 -3 22
-54 48 -115 25 -60 46 -116 47 -122 0 -7 4 -13 9 -13 4 0 7 -3 6 -7 -1 -5 10
-35 26 -68 75 -157 112 -230 119 -233 4 -2 7 -11 7 -21 0 -9 7 -27 17 -40 40
-57 61 -109 50 -120 -6 -6 -17 -11 -24 -11 -7 0 -13 -4 -13 -10 0 -5 -4 -10
-10 -10 -10 0 -90 -55 -140 -95 -31 -25 -158 -153 -187 -188 -12 -14 -35 -46
-50 -69 -15 -24 -31 -45 -34 -48 -19 -15 -104 -198 -131 -280 -16 -52 -32
-102 -35 -110 -3 -8 -7 -24 -9 -35 -25 -154 -31 -220 -33 -328 -2 -114 -4
-131 -25 -161 -32 -48 -34 -127 -4 -185 29 -57 86 -102 129 -104 19 -1 37 -6
40 -11 4 -5 38 -8 75 -7 145 3 199 3 519 -3 341 -7 347 -7 368 -4 6 0 23 -2
36 -6 18 -6 22 -5 16 4 -6 9 -4 11 5 5 8 -5 88 -10 179 -11 91 -1 169 -3 172
-3 3 -1 7 -49 8 -107 1 -59 3 -110 6 -114 2 -3 6 -18 9 -33 2 -14 21 -44 40
-65 35 -38 53 -47 226 -112 47 -17 94 -36 105 -40 11 -4 40 -16 65 -25 25 -9
59 -22 75 -29 89 -38 145 -42 280 -21 11 2 47 6 80 10 33 3 71 7 85 10 14 2
52 7 85 10 33 3 74 8 90 10 35 5 203 24 255 29 19 2 62 7 95 11 33 4 76 9 95
11 19 2 58 7 85 9 83 9 129 15 155 19 14 3 54 7 90 11 36 4 76 8 90 10 14 2
48 6 75 9 118 13 142 18 180 41 22 13 47 33 55 45 8 12 27 36 41 53 74 88 109
132 109 137 0 3 444 5 988 4 543 -1 994 2 1002 7 9 4 23 3 33 -2 9 -6 17 -6
17 -1 0 9 72 8 89 -2 6 -4 11 -4 11 1 0 4 55 9 123 10 67 1 235 4 372 7 138 3
347 8 466 10 119 2 222 7 228 10 6 4 11 4 11 -1 0 -4 19 -9 43 -10 23 -1 53
-3 67 -4 30 -2 61 5 92 22 28 15 73 49 64 49 -3 0 2 9 12 19 52 58 152 218
212 341 65 132 116 275 134 375 3 17 8 43 12 60 18 82 18 337 0 405 -4 14 -8
36 -10 50 -1 14 -5 32 -8 40 -7 17 -43 127 -49 150 -7 28 -116 237 -129 250
-3 3 -23 29 -44 59 -44 62 -48 68 -94 119 -70 78 -131 139 -182 182 -29 25
-64 55 -77 68 -13 12 -26 22 -29 22 -2 0 -33 21 -67 47 -94 72 -125 93 -137
93 -5 0 -10 3 -10 8 0 7 -11 14 -100 65 -174 99 -256 141 -417 213 -29 12 -53
28 -53 33 0 6 3 11 8 11 4 0 24 36 46 80 21 44 42 80 47 80 5 0 8 3 7 8 -4 13
23 82 33 82 5 0 8 3 8 8 -1 4 0 10 1 15 1 4 3 10 5 15 1 4 7 21 14 37 7 17 30
82 51 145 l39 115 49 6 c27 4 67 12 88 20 21 7 41 13 44 14 3 0 10 3 15 6 14
9 125 42 150 45 11 1 47 5 80 8 119 11 226 23 358 42 23 3 51 7 62 9 11 1 34
5 50 9 17 4 46 8 65 10 19 2 69 11 110 19 41 9 90 19 107 22 18 3 61 12 95 20
35 8 79 16 98 19 38 5 86 14 110 21 8 2 31 7 50 10 19 3 42 8 50 10 8 3 33 7
55 10 22 3 51 7 65 10 14 3 39 8 55 10 17 3 53 9 80 14 28 6 64 12 80 15 122
18 172 29 182 39 6 7 14 32 17 57 3 25 8 65 12 90 3 25 7 63 9 85 5 59 15 155
20 195 4 32 7 69 20 205 2 28 7 82 10 120 3 39 7 93 10 120 2 28 7 84 10 125
3 41 7 102 10 135 5 75 15 248 20 340 2 39 7 140 11 225 5 85 8 358 8 605 1
385 -3 517 -19 745 -3 51 -15 180 -20 215 -2 17 -7 56 -10 88 -4 32 -8 66 -10
75 -1 9 -6 42 -10 72 -4 30 -9 64 -12 75 -2 11 -6 29 -8 40 -38 222 -125 466
-213 600 -43 64 -116 145 -131 145 -6 0 -14 6 -18 13 -11 18 -121 64 -193 82
-36 8 -219 93 -230 106 -3 3 -20 14 -37 24 -18 11 -33 23 -33 27 0 4 -9 8 -19
8 -10 0 -21 7 -25 15 -3 8 -10 15 -17 15 -6 0 -23 8 -37 18 -43 30 -210 115
-297 152 -44 18 -84 37 -89 42 -6 4 -16 8 -23 8 -7 0 -36 11 -65 25 -28 14
-59 25 -68 25 -9 0 -20 4 -25 9 -9 8 -345 125 -391 136 -10 2 -37 9 -59 15
-151 39 -273 48 -335 25 -25 -9 -49 -17 -55 -17 -5 0 -62 15 -125 32 -194 54
-153 52 -475 25 -16 -1 -70 -6 -120 -10 -95 -7 -130 -10 -235 -20 -36 -3 -94
-8 -130 -10 -60 -4 -143 -11 -245 -20 -22 -2 -80 -7 -129 -10 -49 -3 -92 -7
-95 -8 -3 -1 -63 27 -132 62 l-126 64 68 171 c37 95 72 188 77 207 12 36 39
114 49 139 3 8 7 17 8 20 19 64 69 221 76 240 5 14 11 34 13 45 2 11 16 64 30
118 14 55 25 102 25 105 -1 4 0 9 1 12 3 10 11 46 17 83 3 21 9 40 14 42 4 3
65 -13 136 -36 70 -23 134 -42 141 -42 6 0 12 -4 12 -9 0 -5 3 -7 8 -5 4 3 18
0 32 -6 14 -5 36 -12 50 -14 13 -2 30 -9 37 -15 7 -6 13 -8 13 -5 0 3 26 -3
58 -14 31 -11 64 -22 72 -24 8 -2 116 -33 240 -70 124 -37 275 -80 335 -96
301 -81 372 -100 395 -105 14 -2 48 -11 75 -19 28 -8 61 -16 75 -18 14 -2 32
-7 40 -10 8 -3 49 -13 90 -22 41 -8 118 -24 170 -35 52 -12 106 -23 120 -25
14 -3 35 -7 46 -9 12 -2 37 -7 55 -10 19 -3 45 -8 59 -11 14 -3 43 -7 65 -10
22 -3 66 -10 99 -15 32 -5 61 -9 65 -8 3 0 8 -1 11 -2 25 -10 380 -20 380 -10
0 3 17 5 37 4 42 -1 69 8 128 46 47 30 85 68 85 86 0 7 6 14 13 17 18 6 13
153 -6 185 -5 6 -6 12 -4 12 3 0 1 17 -5 38 -5 20 -13 53 -18 72 -70 293 -187
624 -318 900 -25 52 -46 97 -47 100 -1 6 -32 64 -58 109 -11 20 -27 48 -34 63
-8 15 -19 30 -24 33 -5 4 -7 10 -4 14 2 5 -4 16 -15 26 -11 10 -20 24 -20 31
0 7 -6 19 -12 26 -17 17 -88 126 -88 134 0 3 -6 11 -12 18 -7 7 -22 25 -33 40
-18 25 -60 82 -82 111 -17 21 -100 121 -128 153 -71 81 -315 320 -315 308 0
-2 -15 10 -34 27 -46 43 -52 47 -137 109 -41 29 -76 55 -79 58 -3 3 -14 10
-25 17 -11 6 -63 39 -117 71 -53 33 -110 66 -127 73 -17 8 -31 17 -31 21 0 5
-5 8 -10 8 -6 0 -34 12 -63 26 -97 48 -271 119 -362 148 -49 16 -99 33 -110
37 -11 5 -66 20 -122 34 -91 23 -135 32 -238 50 -16 3 -40 8 -51 10 -12 3 -52
8 -90 11 -38 3 -75 11 -81 16 -7 6 -13 6 -13 1 0 -4 -18 -7 -40 -5 -31 3 -41
9 -45 26 -7 27 -25 115 -29 141 -2 11 -9 40 -16 65 -7 25 -13 50 -14 55 -1 6
-4 15 -8 20 -3 6 -9 26 -13 45 -4 19 -10 40 -13 45 -4 6 -7 15 -8 20 -12 74
-193 419 -226 433 -4 2 -8 8 -8 14 0 8 -29 47 -95 126 -64 77 -162 178 -260
267 -48 44 -105 97 -127 118 -22 20 -41 37 -43 37 -2 0 -15 10 -27 23 -22 21
-88 78 -139 122 -13 11 -62 48 -109 82 -47 35 -92 68 -100 75 -8 7 -16 11 -17
8 -1 -3 -11 2 -22 11 -10 10 -28 20 -40 24 -12 3 -21 11 -21 16 0 6 -4 8 -9 5
-5 -4 -11 -3 -13 1 -4 10 -171 93 -187 93 -6 0 -11 5 -11 12 0 6 -3 8 -6 5 -4
-4 -19 0 -33 8 -38 20 -181 75 -197 75 -8 0 -14 4 -14 8 0 5 -6 9 -12 9 -11 0
-50 11 -184 53 -17 6 -40 10 -52 10 -12 0 -22 3 -22 8 0 4 -10 7 -22 8 -13 0
-39 4 -58 8 -19 3 -51 8 -70 11 -66 7 -125 15 -150 20 -14 2 -52 7 -85 10 -33
4 -71 8 -85 9 -14 2 -61 7 -105 11 -44 3 -100 9 -125 11 -52 6 -626 14 -632 9z
m145 -400 c26 0 47 2 47 5 0 8 59 4 67 -4 3 -3 14 -1 24 4 12 7 20 7 24 0 4
-7 13 -7 26 0 10 6 19 7 19 3 0 -4 37 -8 83 -9 45 -1 116 -4 157 -7 123 -10
203 -18 235 -22 17 -2 55 -6 85 -9 30 -4 71 -8 90 -11 19 -3 57 -8 85 -11 62
-7 172 -29 207 -43 14 -5 28 -7 31 -4 3 3 12 1 19 -3 7 -5 19 -9 26 -10 8 -2
21 -6 30 -10 21 -9 20 -9 57 -19 17 -5 44 -14 60 -21 17 -7 32 -12 35 -11 3 0
16 -6 30 -13 14 -8 30 -15 37 -16 15 -3 287 -135 293 -143 3 -4 30 -22 60 -41
30 -19 57 -37 60 -40 3 -3 23 -18 45 -35 37 -28 64 -50 119 -100 13 -11 51
-45 85 -75 132 -115 338 -310 328 -310 -2 0 14 -19 37 -43 59 -62 86 -96 86
-107 0 -5 6 -13 13 -17 13 -9 30 -34 49 -73 7 -14 15 -27 19 -30 14 -11 87
-168 112 -240 37 -107 78 -274 92 -375 40 -281 50 -396 59 -700 7 -223 11
-245 46 -293 90 -124 281 -103 342 38 18 41 19 60 13 250 -9 293 -9 290 -17
290 -4 0 -4 10 1 23 5 12 5 32 0 44 -10 26 -1 34 32 28 13 -2 47 -6 74 -9 28
-4 70 -10 95 -15 25 -5 47 -7 49 -5 2 2 10 -1 17 -7 8 -6 21 -9 29 -5 8 3 15
2 15 -2 0 -4 8 -8 18 -8 15 -1 58 -10 87 -18 151 -42 253 -77 342 -117 24 -10
45 -19 48 -19 9 0 140 -62 145 -69 3 -3 10 -7 16 -8 27 -5 343 -203 380 -238
6 -5 29 -23 50 -40 83 -64 299 -274 382 -370 59 -69 132 -166 132 -174 0 -6 4
-11 8 -11 5 0 15 -12 23 -27 8 -16 17 -30 21 -33 12 -9 88 -130 88 -140 0 -6
5 -10 10 -10 6 0 10 -5 10 -10 0 -6 10 -27 23 -48 42 -66 96 -172 89 -172 -4
0 -2 -4 3 -8 11 -7 69 -126 101 -204 10 -27 22 -48 26 -48 4 0 5 -6 2 -14 -3
-7 1 -20 8 -27 7 -8 14 -22 16 -33 2 -10 8 -30 14 -45 6 -14 12 -28 13 -31 1
-3 4 -12 7 -20 4 -8 9 -24 14 -35 4 -11 6 -23 6 -27 -1 -5 2 -8 6 -8 5 0 9 -6
10 -12 1 -19 8 -46 32 -118 12 -36 23 -72 25 -80 2 -8 12 -42 22 -75 24 -78
24 -100 -2 -99 -38 2 -170 15 -195 19 -14 3 -45 7 -69 10 -42 5 -72 10 -121
20 -14 3 -52 10 -85 16 -75 13 -76 13 -215 44 -63 15 -126 28 -140 29 -14 2
-32 6 -40 9 -8 4 -55 16 -105 27 -49 12 -101 25 -115 30 -14 5 -36 12 -50 14
-64 13 -84 17 -92 22 -5 3 -21 7 -36 10 -15 3 -34 7 -42 11 -16 7 -23 8 -60
17 -62 14 -157 40 -175 48 -12 5 -30 11 -40 13 -11 2 -20 4 -20 5 0 1 -8 3
-17 6 -10 2 -24 6 -30 7 -7 2 -26 7 -43 11 -16 4 -37 10 -45 13 -8 3 -19 7
-25 8 -32 8 -166 48 -197 60 -21 8 -38 12 -38 9 0 -4 -7 -1 -15 6 -8 7 -15 10
-15 6 0 -3 -16 0 -35 8 -19 8 -35 13 -35 10 0 -3 -6 -2 -12 3 -7 4 -16 8 -20
9 -5 1 -9 2 -10 4 -2 1 -11 3 -20 5 -20 4 -86 24 -108 33 -8 3 -22 7 -30 8 -8
2 -42 13 -75 24 -70 25 -70 25 -112 35 -18 4 -33 10 -33 14 0 4 -8 7 -18 8
-10 1 -68 18 -128 38 -60 20 -116 38 -124 40 -8 2 -29 8 -45 13 -58 18 -142
-5 -181 -49 -51 -57 -58 -78 -60 -178 -3 -111 -9 -168 -23 -231 -5 -25 -13
-60 -16 -79 -3 -19 -8 -37 -10 -41 -2 -4 -7 -20 -10 -36 -3 -16 -12 -54 -20
-84 -9 -30 -18 -62 -20 -70 -10 -41 -57 -187 -66 -205 -6 -12 -11 -27 -13 -35
-6 -36 -35 -113 -57 -154 -8 -13 -7 -16 1 -11 8 5 9 2 1 -11 -19 -34 -61 -143
-61 -159 0 -8 -4 -15 -10 -15 -5 0 -9 -3 -8 -7 1 -5 -4 -24 -11 -43 -8 -19
-15 -38 -16 -42 -1 -5 -4 -11 -5 -15 -1 -5 -2 -11 -1 -15 0 -5 -4 -8 -9 -8 -6
0 -10 -6 -10 -12 0 -12 -33 -95 -79 -200 -11 -27 -17 -48 -13 -48 4 0 7 -20 8
-45 0 -31 9 -56 28 -84 34 -49 49 -59 156 -100 102 -40 332 -151 342 -166 5
-6 -16 -15 -55 -23 -83 -17 -98 -20 -127 -27 -14 -3 -32 -8 -40 -10 -8 -2 -16
-4 -17 -4 -2 -1 -5 -1 -8 -1 -2 -1 -20 -7 -39 -15 -18 -8 -36 -11 -39 -8 -4 3
-13 0 -22 -7 -8 -7 -15 -10 -15 -7 0 3 -23 -3 -51 -14 -29 -10 -56 -16 -60
-13 -5 3 -9 0 -9 -6 0 -7 -6 -10 -14 -7 -8 3 -16 3 -18 -1 -2 -4 -28 -15 -58
-26 -30 -10 -74 -27 -97 -37 -23 -10 -45 -19 -49 -19 -12 0 -259 -124 -272
-137 -7 -7 -20 -13 -28 -13 -8 0 -14 -4 -14 -10 0 -5 -7 -10 -15 -10 -8 0 -15
-4 -15 -10 0 -5 -4 -10 -10 -10 -10 0 -130 -80 -155 -103 -7 -6 -28 -23 -46
-37 -51 -39 -116 -98 -214 -192 -49 -49 -94 -88 -99 -88 -5 0 -7 -2 -5 -5 3
-2 -65 -75 -151 -162 -85 -87 -173 -180 -195 -208 -22 -27 -42 -52 -45 -55 -3
-3 -17 -21 -30 -40 -13 -19 -27 -37 -30 -40 -14 -14 -85 -130 -126 -207 -25
-48 -53 -94 -63 -102 -10 -9 -20 -23 -23 -31 -3 -9 -19 -15 -44 -16 -66 -4
-188 -14 -214 -18 -14 -3 -47 -8 -75 -11 -83 -12 -88 -13 -150 -24 -99 -18
-107 -20 -175 -37 -36 -9 -72 -18 -80 -19 -8 -2 -15 -4 -15 -5 0 -1 -10 -3
-22 -6 -38 -7 -218 -77 -221 -85 -2 -5 -10 -9 -18 -9 -42 0 -201 -135 -227
-192 -6 -15 -15 -28 -19 -28 -5 0 -7 -3 -7 -7 1 -5 0 -10 -1 -13 -8 -22 -12
-55 -15 -119 l-2 -74 -66 -71 c-37 -39 -76 -82 -87 -96 -11 -14 -23 -29 -28
-35 -73 -90 -159 -268 -177 -365 -3 -14 -7 -36 -10 -50 -3 -14 -5 -59 -6 -100
-1 -374 257 -625 718 -700 204 -33 569 -31 838 4 22 3 63 8 90 11 28 4 74 10
104 16 30 5 56 9 57 9 2 0 1 -10 -1 -22 -3 -12 6 -46 20 -75 13 -29 22 -53 19
-53 -3 0 2 -12 10 -28 9 -15 36 -74 61 -131 74 -168 255 -502 291 -539 7 -6
16 -21 19 -32 3 -11 11 -20 16 -20 5 0 9 -5 9 -10 0 -9 65 -102 95 -136 6 -7
25 -30 43 -52 43 -53 150 -160 192 -192 18 -14 41 -32 52 -41 10 -9 32 -22 48
-29 17 -7 30 -17 30 -22 0 -5 4 -7 9 -4 5 4 11 3 13 -1 4 -10 102 -50 143 -59
46 -10 186 -11 192 -2 2 5 11 4 19 -3 9 -7 19 -8 27 -3 10 8 70 10 87 4 3 -1
20 -3 37 -5 45 -5 96 -22 171 -56 34 -16 67 -29 72 -29 6 0 10 -4 10 -8 0 -4
8 -9 18 -10 27 -3 46 -7 57 -13 18 -9 84 -2 148 16 67 19 317 158 317 176 0 5
5 9 10 9 11 0 63 34 88 57 7 7 16 13 20 13 4 0 23 14 42 30 45 39 49 41 90 70
19 13 42 31 50 40 8 8 40 34 72 58 31 24 97 84 146 135 131 134 152 157 152
167 0 6 6 10 13 10 7 0 20 12 29 28 10 15 34 45 55 67 21 23 76 86 123 140 47
55 91 106 98 113 7 8 25 30 40 50 15 20 36 45 47 56 11 12 34 39 50 60 17 21
35 44 41 50 9 10 81 97 116 141 4 6 42 51 83 100 41 50 75 93 75 98 0 16 26 6
27 -10 1 -10 5 -40 9 -68 4 -27 8 -60 8 -72 1 -13 3 -23 6 -23 5 0 12 -65 14
-132 1 -21 4 -38 7 -38 3 0 5 -27 5 -61 -1 -33 1 -62 4 -64 8 -5 4 -360 -5
-430 -4 -33 -7 -67 -7 -75 0 -17 -25 -183 -34 -220 -3 -14 -7 -37 -10 -52 -3
-15 -16 -66 -30 -115 -14 -48 -28 -98 -31 -110 -3 -13 -10 -23 -15 -23 -5 0
-7 -4 -4 -9 10 -15 -92 -251 -107 -251 -6 0 -8 -3 -4 -6 6 -6 -8 -33 -64 -129
-62 -106 -186 -269 -279 -367 -55 -57 -72 -91 -72 -147 0 -71 16 -113 58 -153
81 -76 202 -73 287 7 15 14 27 30 27 35 0 6 6 10 13 10 6 1 25 19 40 41 30 44
34 44 114 8 24 -10 49 -19 57 -19 8 0 18 -4 21 -10 3 -5 15 -10 26 -10 10 0
19 -4 19 -9 0 -5 17 -15 38 -22 20 -6 39 -15 42 -18 3 -3 39 -23 80 -44 115
-58 175 -91 178 -99 2 -5 9 -8 16 -8 7 0 21 -8 32 -18 34 -29 83 -62 94 -62 5
0 10 -4 10 -8 0 -4 12 -15 28 -24 15 -9 37 -25 49 -35 11 -10 41 -34 64 -53
50 -41 149 -138 198 -195 78 -92 170 -254 196 -347 2 -5 3 -9 5 -10 2 -3 6
-20 14 -53 2 -11 5 -20 6 -20 3 0 11 -101 12 -145 1 -54 -15 -205 -22 -205 -1
0 -3 -7 -5 -15 -8 -41 -28 -108 -40 -135 -7 -16 -26 -57 -40 -90 -30 -66 -102
-193 -121 -212 -8 -9 -83 -14 -250 -18 -132 -3 -333 -8 -449 -10 -194 -5 -697
-16 -720 -16 -5 0 -19 0 -30 0 -11 0 -223 -2 -471 -5 l-452 -6 -79 53 c-44 30
-89 67 -101 84 -11 16 -33 47 -48 68 l-27 37 104 104 c120 121 130 132 146
167 13 29 2 49 -27 49 -9 0 -21 5 -26 10 -8 8 -23 -1 -51 -27 -22 -21 -73 -67
-113 -103 -40 -36 -78 -70 -84 -75 -6 -6 -32 -30 -57 -53 l-47 -42 0 59 c0 72
-28 129 -82 166 -58 40 -106 48 -172 29 -37 -11 -65 -32 -135 -103 -101 -102
-248 -260 -289 -311 -16 -19 -31 -37 -34 -40 -3 -3 -17 -21 -32 -42 -15 -20
-33 -42 -40 -50 -8 -7 -29 -33 -48 -58 -19 -25 -40 -49 -46 -55 -6 -5 -28 -32
-50 -60 -65 -82 -66 -84 -124 -89 -30 -3 -73 -8 -95 -11 -22 -2 -60 -7 -85 -9
-25 -3 -65 -8 -90 -11 -25 -3 -67 -8 -95 -10 -27 -2 -50 -5 -50 -6 0 -2 -49
-7 -115 -13 -30 -2 -55 -5 -55 -6 0 -3 -54 -10 -110 -14 -27 -2 -50 -4 -50 -6
0 -1 -25 -4 -55 -6 -30 -2 -70 -8 -88 -13 -22 -7 -30 -6 -26 1 4 6 2 8 -3 5
-11 -7 -50 -13 -141 -22 -26 -3 -57 -7 -68 -9 -12 -2 -43 -5 -70 -7 -27 -1
-53 -5 -58 -7 -22 -12 -79 -4 -131 18 -11 4 -40 16 -65 25 -25 9 -56 22 -70
28 -14 5 -31 11 -38 13 -45 9 -45 9 -39 127 4 61 9 126 12 142 3 17 8 46 11
65 13 76 15 86 20 102 3 9 7 26 9 37 2 11 17 48 34 83 17 34 31 73 31 85 0 26
48 119 96 184 30 41 99 109 150 149 41 32 126 71 141 66 9 -4 13 -9 10 -12 -3
-3 0 -25 8 -49 7 -24 10 -46 7 -49 -3 -4 -1 -6 5 -6 5 0 15 -11 21 -24 6 -13
31 -38 55 -54 40 -28 50 -30 115 -29 62 2 75 6 109 33 50 41 83 99 83 149 0
23 -9 81 -19 130 -11 50 -22 112 -26 139 -3 27 -8 52 -10 55 -2 4 -6 33 -9 66
-4 33 -9 67 -11 75 -2 8 -7 53 -11 100 -3 47 -8 117 -11 155 -3 39 -5 147 -5
240 -1 197 6 283 34 460 6 39 12 79 14 90 1 11 3 20 4 20 1 0 4 11 6 25 6 32
40 151 60 210 17 49 17 50 69 163 38 86 44 142 21 198 -32 77 -99 122 -180
121 -62 0 -82 -4 -98 -20 -7 -7 -16 -12 -21 -12 -14 0 -45 -40 -74 -95 -15
-27 -28 -52 -28 -55 -1 -3 -8 -21 -17 -40 -8 -19 -21 -53 -29 -75 -8 -22 -18
-43 -22 -46 -5 -3 -8 -9 -7 -13 2 -10 -12 -68 -20 -86 -11 -21 -58 -213 -66
-270 -1 -14 -6 -41 -9 -60 -4 -19 -8 -48 -10 -65 -2 -16 -4 -30 -5 -30 -1 0
-4 -20 -5 -45 -2 -25 -7 -88 -10 -140 -13 -167 -8 -517 9 -635 12 -85 10 -115
-8 -115 -24 0 -211 -86 -234 -108 -7 -6 -17 -12 -22 -12 -5 0 -15 -6 -22 -13
-7 -6 -31 -25 -53 -42 -61 -45 -165 -154 -209 -218 -22 -31 -42 -57 -46 -57
-6 0 -127 120 -202 201 -33 36 -81 93 -135 159 -15 19 -34 42 -40 50 -7 8 -37
49 -67 90 -31 41 -60 80 -66 87 -5 7 -10 16 -10 21 0 5 -7 15 -15 22 -9 7 -23
28 -31 46 -9 19 -20 34 -25 34 -5 0 -9 5 -9 12 0 6 -11 26 -25 44 -14 18 -25
35 -25 37 0 2 -24 44 -53 93 -29 49 -64 112 -77 139 -13 28 -29 57 -36 65 -7
8 -13 18 -13 22 -1 5 -26 59 -55 120 -70 148 -176 400 -192 458 -2 8 -25 76
-50 150 -25 74 -48 144 -49 155 -2 11 -4 21 -5 23 -2 1 -3 5 -5 10 -1 4 -4 14
-8 22 -4 13 -14 48 -22 85 -2 6 -9 30 -16 55 -7 25 -12 49 -10 54 1 4 -4 14
-10 22 -6 8 -9 14 -6 14 3 0 1 17 -4 38 -6 20 -12 51 -16 67 -7 40 -9 47 -16
65 -3 8 -8 29 -10 45 -3 17 -8 41 -11 55 -8 34 -19 102 -20 123 0 9 -3 17 -6
17 -3 0 -6 12 -7 28 -1 15 -5 47 -8 72 -4 25 -7 57 -8 72 -1 16 -4 28 -7 28
-4 0 -6 10 -7 23 0 12 -3 40 -7 62 -3 22 -8 67 -11 100 -3 33 -8 71 -10 85
-13 78 -37 423 -39 562 0 49 -4 88 -8 88 -4 0 -3 11 2 24 5 13 6 27 3 30 -9 9
-9 76 0 76 5 0 5 5 1 11 -8 14 -8 64 2 172 5 57 4 77 -5 77 -7 0 -9 5 -5 11 3
6 8 63 9 127 4 151 12 284 30 500 4 42 8 95 10 117 2 22 4 40 5 40 1 0 3 18 5
40 1 22 6 67 10 100 4 33 9 78 10 100 2 22 4 40 5 40 1 0 3 14 5 30 2 17 7 50
11 75 3 25 8 59 10 75 2 17 6 46 9 65 3 19 7 49 10 65 10 77 15 108 23 142 5
21 8 48 7 61 -1 12 1 22 5 22 3 0 7 12 8 28 1 15 5 38 8 52 3 14 7 36 10 50 2
14 7 41 10 60 4 19 8 45 9 57 2 11 6 29 9 40 3 10 8 32 11 48 2 17 7 41 10 55
3 14 8 36 11 50 2 14 7 36 10 50 3 14 8 36 10 50 3 14 9 41 14 60 5 19 11 46
14 60 3 14 8 36 11 50 4 14 8 34 10 45 2 11 13 58 25 105 29 113 31 122 35
145 2 11 4 20 5 20 1 0 3 7 5 15 13 66 32 106 77 166 28 38 55 71 60 72 4 2 8
10 8 18 0 8 3 14 8 14 4 0 32 32 62 71 30 39 60 76 65 83 6 6 68 90 138 186
69 96 132 182 139 190 7 8 31 37 52 65 22 27 46 58 55 67 9 9 30 34 48 55 18
21 44 52 58 68 108 124 130 204 58 218 -143 27 -382 97 -492 145 -20 8 -41 16
-47 18 -22 4 -296 135 -369 177 -97 55 -146 85 -230 141 -85 56 -215 152 -261
192 -12 11 -46 39 -75 64 -58 48 -344 330 -336 330 3 0 -9 15 -26 33 -27 28
-84 94 -115 132 -12 15 -106 260 -118 305 -2 8 -8 33 -15 55 -6 22 -13 55 -16
73 -3 17 -9 32 -13 32 -5 0 -9 8 -8 18 0 19 -18 127 -22 127 -1 0 -3 11 -5 25
-5 35 -15 117 -21 165 -8 60 -12 495 -5 495 3 0 7 19 7 43 1 43 11 124 19 161
2 12 7 37 10 56 2 19 7 46 10 60 3 14 8 39 10 55 3 17 10 45 16 62 6 18 8 37
5 42 -4 5 -2 12 4 16 6 4 8 11 5 16 -4 5 -2 9 2 9 5 0 10 14 11 32 2 18 6 35
10 38 7 5 10 14 18 54 7 35 27 91 37 104 5 6 7 12 4 12 -3 0 0 15 8 34 8 18
11 36 8 40 -4 3 0 6 7 6 7 0 11 3 7 6 -3 4 0 19 9 35 8 16 15 32 15 36 1 5 5
17 9 28 4 11 8 23 9 28 0 4 12 30 26 57 14 28 23 50 21 50 -6 0 165 343 174
350 4 3 20 29 36 57 16 29 32 53 37 53 4 0 7 6 7 13 0 7 9 22 19 34 10 11 26
34 35 51 9 18 21 32 27 32 6 0 7 5 4 10 -3 6 -1 10 4 10 6 0 11 7 11 15 0 8 4
15 8 15 5 0 21 18 38 40 79 110 256 289 389 395 28 22 52 42 55 45 25 25 191
130 285 180 28 14 59 32 70 38 25 14 107 50 120 52 6 1 16 6 23 12 6 6 12 7
12 2 0 -5 4 -4 8 2 4 6 43 23 87 38 44 15 87 30 95 33 8 3 20 7 25 8 6 1 12 3
15 4 3 2 12 4 20 6 8 2 33 9 55 15 22 6 47 13 55 15 8 2 16 4 18 5 1 2 10 3
20 4 9 1 33 6 52 11 19 5 43 10 53 11 9 1 19 3 22 4 3 1 14 4 25 5 11 1 21 4
23 5 2 2 20 5 102 14 28 4 57 8 65 11 14 4 172 17 237 19 17 1 35 4 39 9 4 4
10 4 13 -1 3 -4 27 -7 54 -7z m-2353 -4261 c0 -3 16 -28 35 -54 19 -26 35 -52
35 -58 0 -6 3 -12 8 -14 9 -4 62 -85 62 -95 0 -4 -7 2 -16 12 -18 23 -140 211
-156 240 -9 18 -8 17 11 -2 11 -12 21 -25 21 -29z m164 -250 c9 -24 2 -26 -12
-4 -7 11 -8 20 -3 20 5 0 12 -7 15 -16z m5286 -1938 c96 -6 237 -22 275 -30
11 -2 33 -5 48 -5 22 -1 48 -21 115 -90 48 -48 94 -97 102 -107 71 -89 97
-121 107 -132 7 -7 20 -26 30 -42 9 -17 21 -30 25 -30 4 0 8 -4 8 -9 0 -6 19
-38 43 -73 58 -88 61 -93 106 -182 22 -43 45 -84 49 -90 19 -24 131 -317 148
-386 2 -8 12 -48 23 -89 11 -41 19 -77 19 -80 -1 -3 1 -13 4 -21 10 -27 32
-171 45 -295 13 -122 7 -625 -7 -625 -3 0 -5 -17 -6 -38 0 -20 -4 -64 -9 -97
-13 -89 -11 -156 7 -195 17 -38 42 -102 44 -110 0 -3 7 -25 14 -50 7 -25 14
-48 16 -52 1 -5 2 -9 3 -10 2 -2 4 -13 7 -25 3 -16 0 -21 -10 -17 -14 5 -22
-2 -66 -52 -32 -38 -152 -176 -165 -190 -18 -20 -119 -137 -140 -162 -11 -13
-31 -35 -45 -50 -24 -26 -112 -127 -161 -186 -13 -16 -34 -38 -45 -50 -12 -12
-38 -43 -58 -69 -20 -27 -36 -45 -36 -41 0 3 -10 -6 -22 -22 -12 -16 -33 -39
-46 -52 -12 -12 -20 -22 -17 -22 3 0 -9 -15 -27 -34 -47 -48 -88 -99 -88 -108
0 -4 -7 -8 -15 -8 -8 0 -15 -4 -15 -10 0 -5 -13 -23 -30 -40 -16 -17 -30 -35
-30 -40 0 -6 -3 -10 -7 -10 -5 0 -32 -29 -62 -65 -29 -36 -59 -65 -66 -65 -8
0 -15 -4 -17 -8 -2 -7 -106 -80 -298 -212 -8 -5 -41 -28 -73 -50 -32 -22 -62
-40 -67 -40 -6 0 -10 -4 -10 -8 0 -5 -24 -24 -52 -42 -29 -19 -55 -38 -56 -42
-2 -5 -8 -6 -13 -2 -5 3 -9 1 -9 -4 0 -17 -79 -54 -103 -46 -12 4 -23 7 -24 6
-2 0 -17 4 -35 9 -18 6 -46 13 -63 16 -16 3 -32 8 -35 11 -3 4 -21 9 -40 10
-19 2 -43 8 -52 13 -9 5 -27 9 -41 9 -13 0 -27 3 -31 7 -4 4 -19 9 -34 11 -15
2 -28 7 -30 12 -2 5 -9 7 -15 5 -7 -3 -112 22 -235 53 l-223 58 -39 52 c-22
29 -40 56 -40 61 0 5 -4 11 -8 13 -5 2 -50 59 -100 128 -50 69 -98 134 -106
144 -8 10 -18 32 -21 47 -4 16 -11 31 -16 34 -5 4 -9 13 -9 20 0 11 9 9 38 -8
20 -12 39 -25 40 -29 2 -4 11 -8 21 -8 9 0 21 -4 27 -8 20 -19 159 -66 256
-87 40 -9 201 -20 231 -16 4 1 8 0 10 0 1 -1 21 8 43 19 79 40 120 114 112
200 -10 100 -83 169 -191 178 -128 11 -171 18 -214 36 -15 6 -36 13 -45 14
-17 4 -84 41 -159 90 -45 30 -167 147 -206 199 -110 145 -115 154 -107 229 10
96 -21 161 -100 211 -30 18 -117 24 -181 12 -16 -4 -43 -9 -60 -12 -16 -3 -37
-8 -45 -12 -8 -3 -25 -7 -36 -9 -12 -1 -39 -5 -60 -9 -22 -3 -55 -8 -74 -10
-19 -3 -45 -7 -57 -9 -12 -3 -50 -8 -85 -11 -35 -4 -81 -9 -103 -11 -119 -13
-175 -16 -325 -16 -163 0 -271 5 -300 15 -8 2 -44 10 -80 16 -160 29 -276 101
-301 187 -7 24 -16 44 -19 44 -3 0 -5 20 -5 45 0 25 2 45 5 45 3 0 7 10 7 23
3 50 29 108 88 195 44 65 186 212 254 262 19 14 39 30 45 36 20 19 195 134
205 134 14 0 72 69 86 104 7 16 12 47 11 67 0 21 1 37 4 37 3 0 7 1 10 2 11 4
71 16 134 25 21 4 48 9 60 11 11 3 39 7 61 10 22 3 51 7 65 10 122 22 477 22
540 0 14 -5 60 -14 101 -20 8 -1 28 -7 45 -13 16 -6 61 -21 99 -33 187 -62
383 -201 487 -346 39 -55 119 -96 178 -92 136 8 230 157 175 279 -10 21 -22
39 -27 39 -4 0 -8 7 -8 15 0 8 -40 56 -90 107 -49 51 -90 98 -90 104 0 14 87
103 137 141 31 24 37 25 80 16 93 -22 186 17 230 95 19 32 33 101 22 108 -5 3
-7 10 -4 15 8 12 -16 79 -29 79 -5 0 -7 3 -4 6 14 13 -75 77 -127 91 -70 18
-98 21 -149 17 -83 -6 -178 -45 -261 -107 -46 -35 -220 -207 -209 -207 4 0 -2
-9 -13 -20 -22 -19 -22 -19 -95 11 -74 31 -117 47 -152 54 -33 8 -39 21 -22
54 9 17 16 34 15 37 0 4 3 10 8 13 5 3 17 22 26 41 10 19 35 64 57 99 22 34
40 67 40 72 0 5 4 9 8 9 5 0 17 16 28 35 10 19 22 35 26 35 3 0 9 8 12 18 4
10 14 27 24 38 9 10 33 39 52 64 19 25 39 50 45 56 5 6 31 36 57 66 78 91 240
247 323 313 135 106 295 208 415 264 72 32 167 71 190 76 8 2 48 13 87 24 40
12 92 23 115 25 24 3 43 6 43 6 0 1 50 4 110 7 61 3 111 6 112 7 2 1 22 1 45
-1 24 -1 77 -5 118 -7z"/>
<path d="M6338 13665 c-2 -1 -23 -5 -48 -8 -25 -3 -58 -11 -75 -17 -16 -6 -31
-11 -33 -11 -10 4 -52 -13 -52 -22 0 -6 -3 -8 -6 -4 -16 16 -140 -65 -229
-148 -59 -56 -158 -204 -154 -231 0 -4 -3 -10 -8 -13 -5 -3 -21 -48 -35 -100
-23 -83 -26 -110 -23 -220 1 -69 5 -136 8 -148 19 -74 46 -145 74 -196 18 -33
33 -63 33 -68 0 -5 4 -9 8 -9 4 0 15 -12 24 -27 65 -110 264 -245 408 -278
137 -32 323 -17 444 35 50 21 139 76 182 112 40 34 104 97 104 103 0 3 11 18
24 32 14 15 23 30 20 35 -3 4 -2 8 3 8 20 0 116 232 112 268 -1 4 0 9 1 12 14
31 12 220 -4 290 -14 61 -17 80 -16 85 0 3 -6 18 -13 33 -8 15 -30 57 -48 95
-19 37 -37 67 -41 67 -5 0 -8 6 -8 13 0 26 -180 197 -209 197 -6 0 -11 4 -11
8 0 10 -65 42 -84 42 -8 0 -19 7 -26 15 -7 8 -16 13 -20 10 -5 -3 -12 0 -15 6
-4 5 -13 8 -20 5 -7 -2 -16 -2 -20 2 -4 4 -10 7 -13 8 -4 0 -21 3 -38 8 -30 7
-190 16 -196 11z"/>
</g>
</svg>
